# AST/ASF file generated using VICON BodyLanguage
# -----------------------------------------------
:version 1.10
:name VICON
:units
  mass 1.0
  length 0.45
  angle deg
:documentation
   .ast/.asf automatically generated from VICON data using
   VICON BodyBuilder and BodyLanguage model FoxedUp or BRILLIANT.MOD
:root
   order TX TY TZ RX RY RZ
   axis XYZ
   position 0 0 0  
   orientation 0 0 0 
:bonedata
  begin
     id 1 
     name lhipjoint
     direction 0.646657 -0.683706 0.338203 
     length 2.4948 
     axis 0 0 0  XYZ
  end
  begin
     id 2 
     name lfemur
     direction 0.34202 -0.939693 0  
     length 6.79491  
     axis 0 0 20  XYZ
    dof rx ry rz
    limits (-160.0 20.0)
           (-70.0 70.0)
           (-60.0 70.0)
  end
  begin
     id 3 
     name ltibia
     direction 0.34202 -0.939693 0   
     length 7.56807   
     axis 0 0 20   XYZ
    dof rx
    limits (-10.0 170.0)
  end
  begin
     id 4 
     name lfoot
     direction 0.0679796 -0.186772 0.980048   
     length 2.53018   
     axis -90 7.62852e-016 20   XYZ
    dof rx rz
    limits (-45.0 90.0)
           (-70.0 20.0)
  end
  begin
     id 5 
     name ltoes
     direction 1.53625e-011 -4.21881e-011 1   
     length 1.26912   
     axis -90 7.62852e-016 20   XYZ
    dof rx
    limits (-90.0 20.0)
  end
  begin
     id 6 
     name rhipjoint
     direction -0.618868 -0.704065 0.348274   
     length 2.42265  
     axis 0 0 0  XYZ 
  end
  begin
     id 7 
     name rfemur
     direction -0.34202 -0.939693 0   
     length 6.73814   
     axis 0 0 -20   XYZ
    dof rx ry rz
    limits (-160.0 20.0)
           (-70.0 70.0)
           (-70.0 60.0)
  end
  begin
     id 8 
     name rtibia
     direction -0.34202 -0.939693 0   
     length 7.66799   
     axis 0 0 -20   XYZ
    dof rx
    limits (-10.0 170.0)
 end
 begin
     id 9 
     name rfoot
     direction -0.0727352 -0.199838 0.977125   
     length 2.57224  
     axis -90 -7.62852e-016 -20   XYZ
    dof rx rz
    limits (-45.0 90.0)
           (-20.0 70.0)
  end
  begin
     id 10 
     name rtoes
     direction -1.53501e-011 -4.21858e-011 1   
     length 1.28858   
     axis -90 -7.62852e-016 -20   XYZ
    dof rx
    limits (-90.0 20.0)
  end
  begin
     id 11 
     name lowerback
     direction -0.0172471 0.995767 -0.0902851   
     length 2.20206   
     axis 0 0 0   XYZ
    dof rx ry rz
    limits (-20.0 45.0)
           (-30.0 30.0)
           (-30.0 30.0)
  end
  begin
     id 12 
     name upperback
     direction -0.000110737 0.999714 0.0239043   
     length 2.19523   
     axis 0 0 0   XYZ
    dof rx ry rz
    limits (-20.0 45.0)
           (-30.0 30.0)
           (-30.0 30.0)
  end
  begin
     id 13 
     name thorax
     direction 0.00704869 0.997783 0.0661741   
     length 2.21977   
     axis 0 0 0   XYZ
    dof rx ry rz
    limits (-20.0 45.0)
           (-30.0 30.0)
           (-30.0 30.0)
  end
  begin
     id 14 
     name lowerneck
     direction -0.00407501 0.995527 0.0943846   
     length 1.83142   
     axis 0 0 0   XYZ
    dof rx ry rz
    limits (-20.0 45.0)
           (-30.0 30.0)
           (-30.0 30.0)
  end
  begin
     id 15 
     name upperneck
     direction 0.0640586 0.986486 -0.150807   
     length 1.84616   
     axis 0 0 0   XYZ
    dof rx ry rz
    limits (-20.0 45.0)
           (-30.0 30.0)
           (-30.0 30.0)
  end
  begin
     id 16
     name head
     direction 0.0188017 0.99791 -0.0618239  
     length 1.85932  
     axis 0 0 0   XYZ
    dof rx ry rz
    limits (-20.0 45.0)
           (-30.0 30.0)
           (-30.0 30.0)
  end
  begin
     id 17 
     name lclavicle
     direction 0.976074 0.206905 0.066852  
     length 3.81043  
     axis 0 0 0   XYZ
    dof ry rz
    limits (-20.0 10.0)
           (0.0 20.0)
  end
  begin
     id 18 
     name lhumerus
     direction 1 -4.48971e-011 1.86916e-027   
     length 5.37587   
     axis 180 -30 -90   XYZ
    dof rx ry rz
    limits (-60.0 90.0)
           (-90.0 90.0)
           (-90.0 90.0)
  end
  begin
     id 19
     name lradius
     direction 1 -4.48968e-011 1.69187e-027   
     length 3.35977   
     axis 180 -30 -90   XYZ
    dof rx
    limits (-10.0 170.0)
  end
  begin
     id 20
     name lwrist
     direction 1 -4.48968e-011 5.8978e-027   
     length 1.67988   
     axis -3.27506e-015 90 90   XYZ
    dof ry
    limits (-180.0 0.0)
 end
  begin
     id 21 
     name lhand
     direction 1 -4.49028e-011 1.18071e-026   
     length 0.561859   
     axis -7.52654e-015 90 90   XYZ
    dof rx rz
    limits (-90.0 90.0)
           (-45.0 45.0)
  end
  begin
     id 22 
     name lfingers
     direction 1 -4.48927e-011 2.35758e-026   
     length 0.452985   
     axis -1.50534e-014 90 90   XYZ
    dof rx
    limits (0.0 90.0)
  end
  begin
     id 23
     name lthumb
     direction 0.707107 -6.34898e-011 0.707107   
     length 0.650399   
     axis -90 45 5.69224e-014   XYZ
    dof rx rz
    limits (-45.0 45.0)
           (-45.0 45.0)
  end
  begin
     id 24 
     name rclavicle
     direction -0.988403 0.151789 0.00439714   
     length 3.6942  
     axis 0 0 0   XYZ 
    dof ry rz
    limits (-10.0 20.0)
           (-20.0 0.0)
  end
  begin
     id 25 
     name rhumerus
     direction -1 -4.48978e-011 1.62495e-027  
     length 5.22819   
     axis 180 30 90   XYZ
    dof rx ry rz
    limits (-90.0 60.0)
           (-90.0 90.0)
           (-90.0 90.0)
  end
  begin
     id 26 
     name rradius
     direction -1 -4.48961e-011 3.47796e-027   
     length 3.40764   
     axis 180 30 90   XYZ
    dof rx
    limits (-10.0 170.0)
  end
  begin
     id 27 
     name rwrist
     direction -1 -4.48949e-011 5.89602e-027   
     length 1.70382   
     axis -3.27506e-015 -90 -90   XYZ
    dof ry
    limits (-180.0 0.0)
  end
  begin
     id 28
     name rhand
     direction -1 -4.48977e-011 1.17973e-026   
     length 0.583255   
     axis -7.52654e-015 -90 -90   XYZ
    dof rx rz
    limits (-90.0 90.0)
           (-45.0 45.0)
  end
  begin
     id 29
     name rfingers
     direction -1 -4.49099e-011 2.36408e-026   
     length 0.470235   
     axis -1.50534e-014 -90 -90   XYZ
    dof rx
    limits (0.0 90.0)
  end
  begin
     id 30
     name rthumb
     direction -0.707107 -6.35011e-011 0.707107   
     length 0.675167   
     axis -90 -45 -5.69224e-014   XYZ
    dof rx rz
    limits (-45.0 45.0)
           (-45.0 45.0)
  end
:hierarchy
  begin
    root lhipjoint rhipjoint lowerback
    lhipjoint lfemur
    lfemur ltibia
    ltibia lfoot
    lfoot ltoes
    rhipjoint rfemur
    rfemur rtibia
    rtibia rfoot
    rfoot rtoes
    lowerback upperback
    upperback thorax
    thorax lowerneck lclavicle rclavicle
    lowerneck upperneck
    upperneck head
    lclavicle lhumerus
    lhumerus lradius
    lradius lwrist
    lwrist lhand lthumb
    lhand lfingers
    rclavicle rhumerus
    rhumerus rradius
    rradius rwrist
    rwrist rhand rthumb
    rhand rfingers
  end

#!OML:ASF G:\JayActor3\Patient Classification 1\Patient 1\Session 2\male.ASF
:FULLY-SPECIFIED
:DEGREES
236
root 42.9725 16.1746 -6.05626 180.539 -86.5179 -177.241
lowerback -0.620444 -1.52467 -5.03604
upperback 3.9168 -1.92882 -0.547075
thorax 4.54997 -1.15951 2.15947
lowerneck -10.5299 -0.378026 -1.15572
upperneck 3.90097 -0.722458 4.93558
head 3.16349 -0.192613 1.78996
rclavicle -3.37934e-015 -1.43125e-014
rhumerus -29.6258 -10.5135 -82.4106
rradius 21.4273
rwrist 4.03343
rhand -21.5982 6.22822
rfingers 7.12502
rthumb 4.79672 -23.6975
lclavicle -3.37934e-015 -1.43125e-014
lhumerus -23.3421 -26.7565 104.889
lradius 56.6413
lwrist 20.9067
lhand -19.8427 18.8835
lfingers 7.12502
lthumb 6.49167 48.764
rfemur -43.719 1.98653 21.5864
rtibia 54.3269
rfoot -17.7829 -0.289531
rtoes 5.52476
lfemur 6.63272 6.8366 -26.1538
ltibia 21.0309
lfoot -22.5692 15.4599
ltoes -18.2875
237
root 42.881 16.1738 -6.05098 182.393 -86.6431 -179.137
lowerback -0.584253 -1.56826 -5.10879
upperback 3.95092 -1.9871 -0.554816
thorax 4.57248 -1.19267 2.18929
lowerneck -10.5693 -0.372376 -1.14445
upperneck 3.82059 -0.715099 4.94521
head 3.14303 -0.189382 1.79085
rclavicle -1.55052e-014 -3.97569e-015
rhumerus -29.7211 -10.9704 -82.1702
rradius 21.11
rwrist 4.39983
rhand -21.5911 6.23279
rfingers 7.12502
rthumb 4.80361 -23.6928
lclavicle -1.55052e-014 -3.97569e-015
lhumerus -23.2493 -27.2621 104.98
lradius 56.85
lwrist 20.8191
lhand -19.6675 18.5818
lfingers 7.12502
lthumb 6.66082 48.457
rfemur -43.3642 2.61102 21.2735
rtibia 53.2736
rfoot -17.7217 -0.0964985
rtoes 5.87775
lfemur 7.24407 6.86744 -26.2102
ltibia 20.6186
lfoot -22.2941 15.2127
ltoes -18.4708
238
root 42.7883 16.1718 -6.0468 184.054 -86.7767 -180.841
lowerback -0.553816 -1.61301 -5.15982
upperback 3.98648 -2.04737 -0.554806
thorax 4.59944 -1.22626 2.21472
lowerneck -10.591 -0.369631 -1.13962
upperneck 3.72085 -0.709484 4.94887
head 3.11255 -0.187833 1.79043
rclavicle 3.96575e-014 2.06736e-014
rhumerus -29.8257 -11.3824 -81.9499
rradius 20.826
rwrist 4.72968
rhand -21.5789 6.23117
rfingers 7.12502
rthumb 4.81541 -23.6941
lclavicle 3.96575e-014 2.06736e-014
lhumerus -23.1582 -27.7164 105.056
lradius 56.9943
lwrist 20.7033
lhand -19.4485 18.3488
lfingers 7.12502
lthumb 6.87222 48.2172
rfemur -43.0248 3.26315 20.9732
rtibia 52.4719
rfoot -17.5289 -0.0330662
rtoes 6.46331
lfemur 7.835 6.88982 -26.2369
ltibia 20.2568
lfoot -22.0391 14.9474
ltoes -18.6515
239
root 42.6933 16.1683 -6.04348 185.76 -86.9299 -182.598
lowerback -0.534714 -1.66338 -5.19846
upperback 4.02822 -2.11479 -0.551851
thorax 4.6396 -1.26344 2.23541
lowerneck -10.6042 -0.36828 -1.14273
upperneck 3.61303 -0.704293 4.95242
head 3.07778 -0.186843 1.79121
rclavicle 1.89839e-014 1.82882e-014
rhumerus -29.9321 -11.7499 -81.7529
rradius 20.5666
rwrist 5.02879
rhand -21.5638 6.23167
rfingers 7.12502
rthumb 4.82996 -23.6933
lclavicle 1.89839e-014 1.82882e-014
lhumerus -23.0787 -28.1292 105.125
lradius 57.0544
lwrist 20.4954
lhand -19.2439 18.1002
lfingers 7.12502
lthumb 7.06974 47.9621
rfemur -42.6892 3.91097 20.6829
rtibia 51.933
rfoot -17.1854 -0.0474947
rtoes 7.28048
lfemur 8.40782 6.91434 -26.2405
ltibia 19.9633
lfoot -21.7917 14.6679
ltoes -18.8826
240
root 42.5965 16.1628 -6.04106 187.345 -87.1028 -184.237
lowerback -0.526107 -1.71803 -5.2136
upperback 4.07341 -2.18796 -0.544559
thorax 4.68904 -1.30294 2.24671
lowerneck -10.6094 -0.369639 -1.14752
upperneck 3.50094 -0.702114 4.9534
head 3.04012 -0.187627 1.79115
rclavicle 1.39149e-015 1.55052e-014
rhumerus -30.047 -12.0789 -81.5766
rradius 20.3349
rwrist 5.30434
rhand -21.5421 6.26575
rfingers 7.12502
rthumb 4.85092 -23.6587
lclavicle 1.39149e-015 1.55052e-014
lhumerus -23.0118 -28.506 105.189
lradius 57.0236
lwrist 20.1878
lhand -19.054 17.8767
lfingers 7.12502
lthumb 7.25299 47.7324
rfemur -42.3614 4.54225 20.4262
rtibia 51.6512
rfoot -16.6789 -0.102277
rtoes 8.25037
lfemur 8.9453 6.94926 -26.2071
ltibia 19.7511
lfoot -21.5177 14.4069
ltoes -19.3068
241
root 42.4974 16.1555 -6.03937 188.83 -87.2883 -185.776
lowerback -0.534613 -1.77698 -5.20588
upperback 4.11559 -2.26647 -0.533127
thorax 4.74466 -1.34425 2.24871
lowerneck -10.5883 -0.372937 -1.15642
upperneck 3.37753 -0.701483 4.95531
head 2.99373 -0.189666 1.79171
rclavicle -3.97569e-016 2.34566e-014
rhumerus -30.1714 -12.3691 -81.4203
rradius 20.1232
rwrist 5.56458
rhand -21.5167 6.31271
rfingers 7.12502
rthumb 4.87549 -23.6112
lclavicle -3.97569e-016 2.34566e-014
lhumerus -22.966 -28.828 105.252
lradius 56.8977
lwrist 19.7902
lhand -18.9479 17.5957
lfingers 7.12502
lthumb 7.3554 47.4478
rfemur -42.043 5.14363 20.2108
rtibia 51.6126
rfoot -16.0127 -0.148149
rtoes 9.33051
lfemur 9.43983 6.9988 -26.1391
ltibia 19.6239
lfoot -21.2245 14.1616
ltoes -19.924
242
root 42.3963 16.1458 -6.03825 190.315 -87.4729 -187.305
lowerback -0.566326 -1.83655 -5.17974
upperback 4.15281 -2.34484 -0.519547
thorax 4.80752 -1.38471 2.24189
lowerneck -10.5527 -0.378866 -1.16935
upperneck 3.25774 -0.703723 4.95598
head 2.94601 -0.193311 1.79236
rclavicle -2.60408e-014 1.51076e-014
rhumerus -30.2952 -12.6458 -81.2747
rradius 19.9146
rwrist 5.84626
rhand -21.5013 6.37267
rfingers 7.12502
rthumb 4.89029 -23.5509
lclavicle -2.60408e-014 1.51076e-014
lhumerus -22.934 -29.085 105.309
lradius 56.6734
lwrist 19.3459
lhand -18.9002 17.286
lfingers 7.12502
lthumb 7.40147 47.1366
rfemur -41.7367 5.70701 20.0374
rtibia 51.7909
rfoot -15.197 -0.153026
rtoes 10.4315
lfemur 9.88053 7.06201 -26.0492
ltibia 19.5911
lfoot -20.9234 13.94
ltoes -20.7244
243
root 42.2928 16.1339 -6.03751 191.879 -87.6413 -188.896
lowerback -0.628574 -1.89331 -5.1403
upperback 4.17882 -2.4179 -0.505106
thorax 4.87493 -1.42165 2.22791
lowerneck -10.5038 -0.384575 -1.1863
upperneck 3.15261 -0.705325 4.95485
head 2.90087 -0.196621 1.79328
rclavicle -4.87022e-015 3.1408e-014
rhumerus -30.4226 -12.9151 -81.1335
rradius 19.7062
rwrist 6.1526
rhand -21.4909 6.43095
rfingers 7.12502
rthumb 4.9004 -23.4924
lclavicle -4.87022e-015 3.1408e-014
lhumerus -22.9189 -29.2611 105.362
lradius 56.3575
lwrist 18.9086
lhand -18.87 16.9877
lfingers 7.12502
lthumb 7.43065 46.8372
rfemur -41.4436 6.2296 19.9034
rtibia 52.1535
rfoot -14.2972 -0.090737
rtoes 11.5317
lfemur 10.2654 7.13091 -25.9519
ltibia 19.6472
lfoot -20.6488 13.7257
ltoes -21.5925
244
root 42.1868 16.1197 -6.03703 193.546 -87.7897 -190.572
lowerback -0.724234 -1.94533 -5.08883
upperback 4.1912 -2.48288 -0.490474
thorax 4.94579 -1.45359 2.20684
lowerneck -10.4387 -0.389981 -1.20034
upperneck 3.05864 -0.706463 4.94424
head 2.85641 -0.199931 1.79055
rclavicle -3.48867e-014 2.78299e-015
rhumerus -30.5499 -13.1936 -80.9891
rradius 19.4885
rwrist 6.49175
rhand -21.4919 6.47158
rfingers 7.12502
rthumb 4.89935 -23.4518
lclavicle -3.48867e-014 2.78299e-015
lhumerus -22.9193 -29.3458 105.41
lradius 55.9517
lwrist 18.5178
lhand -18.841 16.7244
lfingers 7.12502
lthumb 7.45859 46.5729
rfemur -41.1588 6.70736 19.8071
rtibia 52.6649
rfoot -13.4575 0.0878414
rtoes 12.602
lfemur 10.597 7.20478 -25.8527
ltibia 19.7804
lfoot -20.4098 13.5032
ltoes -22.4627
245
root 42.0777 16.1037 -6.03676 195.428 -87.931 -192.441
lowerback -0.856054 -1.99784 -5.02746
upperback 4.18908 -2.54663 -0.475355
thorax 5.02138 -1.48401 2.17966
lowerneck -10.3831 -0.39377 -1.21122
upperneck 3.00943 -0.706608 4.92415
head 2.82889 -0.202136 1.78478
rclavicle 2.11706e-014 1.59028e-015
rhumerus -30.6806 -13.4743 -80.8421
rradius 19.2677
rwrist 6.84262
rhand -21.4973 6.49197
rfingers 7.12502
rthumb 4.89417 -23.4315
lclavicle 2.11706e-014 1.59028e-015
lhumerus -22.9339 -29.3308 105.453
lradius 55.4558
lwrist 18.1944
lhand -18.7884 16.5221
lfingers 7.12502
lthumb 7.50942 46.3688
rfemur -40.8703 7.13737 19.7411
rtibia 53.2876
rfoot -12.8576 0.377175
rtoes 13.5515
lfemur 10.8864 7.26536 -25.7558
ltibia 19.9719
lfoot -20.2137 13.2579
ltoes -23.2398
246
root 41.965 16.0865 -6.03673 197.861 -88.0746 -194.843
lowerback -1.02541 -2.05347 -4.96217
upperback 4.17207 -2.6124 -0.462311
thorax 5.10254 -1.51471 2.14673
lowerneck -10.3189 -0.396482 -1.21437
upperneck 2.9879 -0.706088 4.88956
head 2.80894 -0.203977 1.7731
rclavicle -1.33186e-014 5.56597e-015
rhumerus -30.8252 -13.7625 -80.6885
rradius 19.0524
rwrist 7.19227
rhand -21.497 6.4935
rfingers 7.12502
rthumb 4.89448 -23.43
lclavicle -1.33186e-014 5.56597e-015
lhumerus -22.9643 -29.2042 105.49
lradius 54.8747
lwrist 17.9688
lhand -18.6889 16.4211
lfingers 7.12502
lthumb 7.60539 46.2643
rfemur -40.5647 7.51924 19.6923
rtibia 53.9856
rfoot -12.6274 0.70634
rtoes 14.2064
lfemur 11.1512 7.30552 -25.6688
ltibia 20.1965
lfoot -20.0437 12.989
ltoes -23.9219
247
root 41.8481 16.0691 -6.03724 201.068 -88.2532 -198.004
lowerback -1.22991 -2.12302 -4.88974
upperback 4.14035 -2.69513 -0.446601
thorax 5.18927 -1.55306 2.11019
lowerneck -10.2531 -0.396363 -1.21752
upperneck 3.00552 -0.702428 4.84829
head 2.80186 -0.203805 1.75985
rclavicle 4.55217e-014 1.66979e-014
rhumerus -30.9891 -14.0513 -80.5304
rradius 18.8493
rwrist 7.51811
rhand -21.4883 6.4666
rfingers 7.12502
rthumb 4.90284 -23.4567
lclavicle 4.55217e-014 1.66979e-014
lhumerus -23.0207 -28.9701 105.529
lradius 54.193
lwrist 17.7873
lhand -18.611 16.341
lfingers 7.12502
lthumb 7.68059 46.1815
rfemur -40.2217 7.85328 19.6632
rtibia 54.7224
rfoot -12.8238 0.992729
rtoes 14.5588
lfemur 11.41 7.30116 -25.574
ltibia 20.428
lfoot -19.8998 12.6867
ltoes -24.4347
248
root 41.7263 16.0526 -6.03844 205.451 -88.477 -202.329
lowerback -1.47378 -2.20761 -4.80404
upperback 4.09807 -2.79657 -0.426492
thorax 5.2882 -1.59993 2.06777
lowerneck -10.1912 -0.395216 -1.21691
upperneck 3.06121 -0.6983 4.79703
head 2.80834 -0.203001 1.7431
rclavicle 1.45113e-014 -1.59028e-015
rhumerus -31.1794 -14.3411 -80.3657
rradius 18.6675
rwrist 7.80413
rhand -21.4679 6.45479
rfingers 7.12502
rthumb 4.92253 -23.468
lclavicle 1.45113e-014 -1.59028e-015
lhumerus -23.098 -28.6251 105.57
lradius 53.4096
lwrist 17.6531
lhand -18.538 16.291
lfingers 7.12502
lthumb 7.75111 46.129
rfemur -39.8255 8.14873 19.657
rtibia 55.4588
rfoot -13.4088 1.15365
rtoes 14.578
lfemur 11.6684 7.24649 -25.4615
ltibia 20.6591
lfoot -19.7496 12.3767
ltoes -24.8628
249
root 41.5995 16.0375 -6.04058 211.905 -88.7437 -208.707
lowerback -1.75943 -2.30827 -4.70491
upperback 4.0428 -2.91832 -0.398822
thorax 5.39834 -1.65606 2.0222
lowerneck -10.13 -0.394384 -1.22004
upperneck 3.15054 -0.694907 4.74405
head 2.82644 -0.202123 1.72683
rclavicle 9.74045e-015 -2.38542e-015
rhumerus -31.3996 -14.6273 -80.1944
rradius 18.5085
rwrist 8.04151
rhand -21.4342 6.45153
rfingers 7.12502
rthumb 4.9551 -23.4705
lclavicle 9.74045e-015 -2.38542e-015
lhumerus -23.1925 -28.1572 105.606
lradius 52.5247
lwrist 17.5559
lhand -18.4721 16.262
lfingers 7.12502
lthumb 7.81473 46.0976
rfemur -39.3769 8.41804 19.6767
rtibia 56.1587
rfoot -14.2688 1.13816
rtoes 14.3114
lfemur 11.9286 7.14535 -25.3223
ltibia 20.8757
lfoot -19.5835 12.0592
ltoes -25.2143
250
root 41.4689 16.0245 -6.04412 221.523 -89.0585 -218.217
lowerback -2.08255 -2.42432 -4.56921
upperback 3.96745 -3.0616 -0.351601
thorax 5.509 -1.72096 1.97299
lowerneck -10.0685 -0.39592 -1.23529
upperneck 3.27207 -0.694355 4.69688
head 2.85581 -0.202148 1.7149
rclavicle -2.5842e-015 -1.23246e-014
rhumerus -31.6456 -14.909 -80.0146
rradius 18.3692
rwrist 8.24026
rhand -21.3999 6.44299
rfingers 7.12502
rthumb 4.98825 -23.4783
lclavicle -2.5842e-015 -1.23246e-014
lhumerus -23.2987 -27.5511 105.637
lradius 51.5399
lwrist 17.4924
lhand -18.3875 16.2756
lfingers 7.12502
lthumb 7.89636 46.1081
rfemur -38.8914 8.68029 19.7551
rtibia 56.7805
rfoot -15.2624 0.955989
rtoes 13.8881
lfemur 12.1711 6.99905 -25.1201
ltibia 21.0729
lfoot -19.3811 11.7405
ltoes -25.5069
